<?xml version="1.0" encoding="UTF-8" standalone="no"?>
<svg
   xmlns:dc="http://purl.org/dc/elements/1.1/"
   xmlns:cc="http://creativecommons.org/ns#"
   xmlns:rdf="http://www.w3.org/1999/02/22-rdf-syntax-ns#"
   xmlns:svg="http://www.w3.org/2000/svg"
   xmlns="http://www.w3.org/2000/svg"
   xmlns:sodipodi="http://sodipodi.sourceforge.net/DTD/sodipodi-0.dtd"
   xmlns:inkscape="http://www.inkscape.org/namespaces/inkscape"
   inkscape:version="1.0beta1 (32d4812, 2019-09-19)"
   sodipodi:docname="logo.svg"
   viewBox="0 0 728.39704 451.26038"
   height="451.26038"
   width="728.39703"
   xml:space="preserve"
   id="svg2"
   version="1.1">
  <metadata
     id="metadata8">
    <rdf:RDF>
      <cc:Work
         rdf:about="">
        <dc:format>image/svg+xml</dc:format>
        <dc:type
           rdf:resource="http://purl.org/dc/dcmitype/StillImage" />
        <dc:title></dc:title>
      </cc:Work>
    </rdf:RDF>
  </metadata>
  <defs
     id="defs6">
    <clipPath
       id="clipPath18"
       clipPathUnits="userSpaceOnUse">
      <path
         inkscape:connector-curvature="0"
         id="path16"
         d="M 0,623.627 H 870.236 V 0 H 0 Z" />
    </clipPath>
  </defs>
  <sodipodi:namedview
     fit-margin-bottom="0"
     fit-margin-right="0"
     fit-margin-left="0"
     fit-margin-top="0"
     inkscape:current-layer="g10"
     inkscape:window-maximized="0"
     inkscape:window-y="25"
     inkscape:window-x="0"
     inkscape:cy="411.20005"
     inkscape:cx="576.2649"
     inkscape:zoom="0.69463914"
     showgrid="false"
     inkscape:document-rotation="0"
     id="namedview4"
     inkscape:window-height="847"
     inkscape:window-width="1440"
     inkscape:pageshadow="2"
     inkscape:pageopacity="0"
     guidetolerance="10"
     gridtolerance="10"
     objecttolerance="10"
     borderopacity="1"
     bordercolor="#666666"
     pagecolor="#ffffff" />
  <g
     transform="matrix(1.3333333,0,0,-1.3333333,-3.8924532,826.95138)"
     inkscape:label="CCJ-logo"
     inkscape:groupmode="layer"
     id="g10">
    <g
       transform="translate(-141.64286,138.85715)"
       id="g12">
      <g
         clip-path="url(#clipPath18)"
         id="g14">
        <g
           transform="translate(223.7852,407.0146)"
           id="g20">
          <path
             inkscape:connector-curvature="0"
             id="path22"
             style="fill:#0a92db;fill-opacity:1;fill-rule:nonzero;stroke:none"
             d="M 0,0 -0.331,1.955 1.188,4.093 5.606,0.928 Z m -0.803,4.743 -0.149,0.882 0.514,-0.368 z m -4.06,-9.167 1.282,1.804 1.942,0.322 0.854,-5.048 z m -4.104,2.94 -3.881,2.779 -0.62,3.667 2.737,3.852 4.328,0.716 3.143,-2.251 0.82,-4.841 -2.289,-3.221 z m 2.478,-1.776 -0.18,0.129 0.308,0.051 z m -4.513,-6.351 -0.949,5.606 2.493,0.413 1.811,-1.298 z m -1.282,7.577 -0.09,0.53 0.618,-0.442 z m -1.656,9.784 -0.088,0.519 0.517,0.085 z m -5.319,-10.938 3.115,4.384 1.462,-1.047 0.425,-2.509 z M -20.977,7.118 -16,7.942 -15.578,5.444 -16.611,3.991 Z m 10.418,5.39 -1.319,-1.857 -2.483,-0.411 -0.962,5.68 z m 1.625,-1.165 0.233,-0.166 -0.398,-0.066 z m 4.027,5.668 0.857,-5.064 -1.862,-0.308 -1.863,1.335 z M 3.799,11.219 0.721,6.887 -1.425,8.425 -1.743,10.302 Z M 52.758,8.731 8.396,1.389 2.346,5.723 6.579,11.679 51.865,19.175 51.539,21.147 8.21,13.976 34.819,51.425 33.189,52.583 5.431,13.516 -2.077,12.273 -3.269,19.316 24.672,58.64 23.042,59.798 -3.74,22.104 l -7.657,45.252 -1.972,-0.334 7.991,-47.223 -4.023,-5.661 -6.395,4.582 -7.88,46.564 -1.972,-0.334 7.544,-44.577 -36.181,25.918 -1.164,-1.626 37.819,-27.092 1.296,-7.659 -6.941,-1.149 -38.256,27.403 -1.164,-1.626 36.631,-26.239 -47.249,-7.821 0.326,-1.972 49.221,8.147 5.997,-4.296 -4.27,-6.009 -49.244,-8.15 0.326,-1.973 47.287,7.827 -26.59,-37.423 1.63,-1.158 27.74,39.041 6.966,1.153 1.284,-7.586 -27.471,-38.663 1.63,-1.158 26.313,37.033 7.637,-45.128 1.971,0.334 -7.97,47.1 4.509,6.345 5.709,-4.091 8.057,-47.612 1.972,0.334 -7.72,45.625 34.409,-24.648 c -0.175,0.915 -0.32,1.842 -0.441,2.775 l -34.442,24.672 -1.19,7.027 7.571,1.253 28.14,-20.158 c 0.106,0.738 0.23,1.469 0.37,2.195 l -25.72,18.425 39.279,6.501 c 0.898,0.863 1.822,1.697 2.785,2.487" />
        </g>
        <g
           transform="translate(259.2432,465.2754)"
           id="g24">
          <path
             inkscape:connector-curvature="0"
             id="path26"
             style="fill:#656263;fill-opacity:1;fill-rule:nonzero;stroke:none"
             d="m 0,0 c -6.177,5.099 -13.024,9.097 -20.35,11.883 -7.336,2.786 -15.203,4.198 -23.382,4.198 -12.772,0 -24.739,-3.159 -35.568,-9.388 -10.824,-6.226 -19.518,-14.791 -25.844,-25.459 -6.329,-10.682 -9.537,-22.575 -9.537,-35.349 0,-12.711 3.224,-24.588 9.585,-35.301 6.356,-10.696 15.051,-19.276 25.843,-25.501 10.796,-6.228 22.747,-9.386 35.521,-9.386 8.183,0 16.068,1.444 23.439,4.292 7.346,2.844 14.148,6.909 20.15,12.029 1.225,0.937 1.872,2.236 1.872,3.756 0,1.35 -0.571,2.201 -1.031,2.658 l -0.211,0.215 c -0.751,0.739 -1.706,1.129 -2.761,1.129 -1.077,0 -2.123,-0.41 -3.085,-1.198 -11.933,-9.374 -24.843,-14.128 -38.373,-14.128 -11.257,0 -21.768,2.758 -31.242,8.198 -9.486,5.443 -17.113,12.933 -22.671,22.261 -5.556,9.314 -8.373,19.736 -8.373,30.976 0,11.244 2.801,21.687 8.325,31.036 5.528,9.357 13.155,16.843 22.667,22.251 9.508,5.41 20.037,8.153 31.294,8.153 13.53,0 26.477,-4.692 38.508,-13.968 2.122,-1.559 4.676,-1.354 6.299,0.271 l 0.091,0.093 c 0.12,0.124 0.22,0.265 0.296,0.419 l 0.186,0.375 c 0.054,0.109 0.096,0.223 0.124,0.341 l 0.005,0.01 C 1.993,-4.715 2.103,-4.269 2.103,-3.81 2.103,-2.562 1.439,-1.337 0,0" />
        </g>
        <g
           transform="translate(210.668,317.394)"
           id="g28">
          <path
             inkscape:connector-curvature="0"
             id="path30"
             style="fill:#f9a72b;fill-opacity:1;fill-rule:nonzero;stroke:none"
             d="M 0,0 0.375,-1.964 54.862,8.443 v 2.036 z" />
        </g>
        <g
           transform="translate(211.1104,312.4092)"
           id="g32">
          <path
             inkscape:connector-curvature="0"
             id="path34"
             style="fill:#f9a72b;fill-opacity:1;fill-rule:nonzero;stroke:none"
             d="M 0,0 0.375,-1.964 54.42,8.361 v 2.035 z" />
        </g>
        <g
           transform="translate(212.3555,306.8828)"
           id="g36">
          <path
             inkscape:connector-curvature="0"
             id="path38"
             style="fill:#f9a72b;fill-opacity:1;fill-rule:nonzero;stroke:none"
             d="m 0,0 0.375,-1.965 52.8,10.091 v 2.036 z" />
        </g>
        <g
           transform="translate(306.1011,342.7715)"
           id="g40">
          <path
             inkscape:connector-curvature="0"
             id="path42"
             style="fill:#656263;fill-opacity:1;fill-rule:nonzero;stroke:none"
             d="m 0,0 z m -32.849,36.559 c -0.002,5.977 1.47,11.526 4.373,16.496 2.905,4.974 6.916,8.961 11.92,11.852 5.004,2.89 10.572,4.357 16.55,4.358 L 0,70.366 v -1.101 c 5.974,0 11.506,-1.455 16.442,-4.324 4.936,-2.87 8.88,-6.845 11.722,-11.814 2.841,-4.972 4.283,-10.542 4.285,-16.554 C 32.45,30.595 31.011,25.06 28.172,20.12 25.333,15.182 21.391,11.221 16.454,8.348 11.519,5.476 5.985,4.019 -0.001,4.018 c -5.978,0 -11.544,1.455 -16.545,4.326 -5.006,2.873 -9.017,6.842 -11.924,11.797 -2.905,4.95 -4.378,10.474 -4.379,16.418 m 51.811,32.797 c -5.711,3.369 -12.09,5.078 -18.97,5.078 -6.838,-0.002 -13.243,-1.712 -19.036,-5.083 -5.788,-3.368 -10.446,-7.994 -13.846,-13.748 -3.404,-5.763 -5.129,-12.171 -5.128,-19.045 0.002,-6.842 1.721,-13.224 5.111,-18.968 3.386,-5.738 8.04,-10.338 13.831,-13.67 C -13.286,0.589 -6.868,-1.101 0,-1.101 h 0.009 c 6.873,0.002 13.254,1.695 18.963,5.034 5.706,3.335 10.281,7.938 13.598,13.681 3.317,5.743 4.998,12.123 4.997,18.96 -0.002,6.869 -1.685,13.273 -5.005,19.033 -3.318,5.755 -7.894,10.381 -13.6,13.749" />
        </g>
        <g
           transform="translate(295.1777,421.4395)"
           id="g44">
          <path
             inkscape:connector-curvature="0"
             id="path46"
             style="fill:#656263;fill-opacity:1;fill-rule:nonzero;stroke:none"
             d="m 0,0 c 0.703,0 1.354,0.294 1.933,0.874 l 8.928,8.885 8.782,-8.779 c 0.614,-0.614 1.282,-0.925 1.986,-0.925 0.446,0 1.107,0.139 1.73,0.798 0.601,0.638 0.727,1.283 0.727,1.713 0,0.701 -0.294,1.351 -0.876,1.934 L 12.645,15.061 C 12.096,15.607 11.496,15.885 10.86,15.885 10.408,15.884 9.734,15.733 9.125,15.057 L -1.584,4.292 c -0.54,-0.54 -0.824,-1.191 -0.824,-1.884 0,-0.629 0.251,-1.212 0.774,-1.733 C -1.194,0.233 -0.628,0 0,0" />
        </g>
        <g
           transform="translate(390.29,416.4189)"
           id="g48">
          <path
             inkscape:connector-curvature="0"
             id="path50"
             style="fill:#656263;fill-opacity:1;fill-rule:nonzero;stroke:none"
             d="m 0,0 -51.503,-0.012 c -1.548,0 -2.509,-0.942 -2.509,-2.509 0,-1.547 0.962,-2.508 2.51,-2.508 l 23.343,0.005 0.014,-66.449 c 0.001,-1.547 0.963,-2.508 2.51,-2.508 h 0.05 c 0.937,0 1.489,0.383 1.788,0.704 0.412,0.444 0.62,1.052 0.62,1.805 l -0.014,66.449 23.192,0.005 c 0.937,0 1.489,0.383 1.787,0.704 0.413,0.444 0.622,1.051 0.621,1.856 C 2.409,-0.942 1.486,0 0,0" />
        </g>
        <g
           transform="translate(446.436,347.4736)"
           id="g52">
          <path
             inkscape:connector-curvature="0"
             id="path54"
             style="fill:#656263;fill-opacity:1;fill-rule:nonzero;stroke:none"
             d="m 0,0 -45.222,-0.01 -0.007,30.794 36.018,0.008 c 0.726,0 1.349,0.174 1.853,0.519 0.617,0.42 0.957,1.109 0.957,1.99 0,0.827 -0.339,1.515 -0.958,1.941 -0.506,0.344 -1.129,0.518 -1.853,0.518 L -45.23,35.752 -45.236,63.93 -1.02,63.939 c 0.762,10e-4 1.394,0.204 1.884,0.605 0.376,0.311 0.825,0.894 0.825,1.956 -0.001,1.188 -0.713,2.457 -2.71,2.457 l -46.675,-0.01 c -1.516,0 -2.459,-0.942 -2.459,-2.459 L -50.14,-2.52 c 10e-4,-1.547 0.944,-2.508 2.46,-2.508 v 0 L 0,-5.018 c 0.764,0 1.397,0.203 1.886,0.605 0.376,0.311 0.824,0.894 0.824,1.955 C 2.71,-1.27 1.998,0 0,0" />
        </g>
        <g
           transform="translate(501.8579,412.5259)"
           id="g56">
          <path
             inkscape:connector-curvature="0"
             id="path58"
             style="fill:#656263;fill-opacity:1;fill-rule:nonzero;stroke:none"
             d="m 0,0 v -1.1 c 6.212,0 11.952,-1.442 17.061,-4.283 5.101,-2.842 9.179,-6.762 12.118,-11.65 2.933,-4.883 4.422,-10.301 4.423,-16.106 0.002,-5.802 -1.484,-11.203 -4.415,-16.054 -2.935,-4.857 -7.01,-8.753 -12.112,-11.579 -5.108,-2.831 -10.851,-4.267 -17.07,-4.268 l -19.019,-0.004 -0.014,63.94 L -0.01,-1.1 Z M 19.646,-1.075 C 13.807,2.238 7.264,3.917 0.19,3.917 L -21.487,3.913 c -0.754,0 -1.359,-0.223 -1.798,-0.663 -0.439,-0.439 -0.661,-1.044 -0.66,-1.796 l 0.014,-69.008 c 0,-1.453 0.828,-2.389 2.217,-2.505 l 0.045,-0.004 21.875,0.005 c 7.067,0.002 13.612,1.676 19.452,4.975 5.84,3.299 10.51,7.824 13.88,13.448 3.374,5.631 5.083,11.854 5.081,18.498 -10e-4,6.677 -1.713,12.925 -5.089,18.57 -3.371,5.638 -8.043,10.177 -13.884,13.492" />
        </g>
        <g
           transform="translate(552.8979,416.4546)"
           id="g60">
          <path
             inkscape:connector-curvature="0"
             id="path62"
             style="fill:#656263;fill-opacity:1;fill-rule:nonzero;stroke:none"
             d="m 0,0 -3.672,-0.001 c -0.922,0 -1.444,-0.39 -1.721,-0.717 -0.352,-0.417 -0.537,-0.933 -0.535,-1.49 v -3.42 c 0,-0.688 0.147,-1.217 0.448,-1.618 0.37,-0.491 0.979,-0.74 1.81,-0.74 h 0.786 c -0.016,-0.038 -0.038,-0.08 -0.063,-0.127 -0.171,-0.308 -0.348,-0.6 -0.531,-0.875 l -0.404,-0.606 c -0.324,-0.487 -0.487,-0.965 -0.485,-1.416 0,-0.424 0.168,-0.825 0.473,-1.131 l 0.899,-0.746 c 0.418,-0.396 0.847,-0.481 1.137,-0.481 0.916,0 1.612,0.717 2.057,1.257 0.551,0.67 1.013,1.548 1.373,2.609 0.357,1.049 0.536,2.167 0.535,3.321 v 3.975 C 2.105,-0.866 1.278,0 0,0" />
        </g>
        <g
           transform="translate(593.7974,342.835)"
           id="g64">
          <path
             inkscape:connector-curvature="0"
             id="path66"
             style="fill:#656263;fill-opacity:1;fill-rule:nonzero;stroke:none"
             d="m 0,0 z m -32.85,36.558 c -10e-4,5.977 1.471,11.527 4.373,16.497 2.907,4.974 6.917,8.962 11.921,11.851 5.002,2.891 10.571,4.357 16.549,4.359 l 0.009,1.1 v -1.1 c 5.974,0 11.504,-1.455 16.439,-4.324 4.938,-2.872 8.882,-6.847 11.722,-11.815 2.843,-4.972 4.284,-10.541 4.285,-16.554 C 32.45,30.596 31.011,25.06 28.172,20.12 25.333,15.182 21.391,11.221 16.454,8.348 11.519,5.476 5.985,4.019 -0.001,4.017 c -5.977,0 -11.543,1.456 -16.545,4.327 -5.005,2.871 -9.017,6.841 -11.925,11.797 -2.903,4.95 -4.377,10.474 -4.379,16.417 m 51.812,32.797 c -5.711,3.37 -12.09,5.078 -18.97,5.078 -6.839,-0.001 -13.243,-1.711 -19.036,-5.082 -5.786,-3.367 -10.444,-7.993 -13.847,-13.748 -3.403,-5.764 -5.129,-12.171 -5.128,-19.046 0.002,-6.843 1.722,-13.224 5.113,-18.966 3.385,-5.74 8.039,-10.339 13.831,-13.671 C -13.286,0.588 -6.868,-1.101 0,-1.101 h 0.009 c 6.873,10e-4 13.253,1.695 18.964,5.033 5.706,3.336 10.28,7.939 13.597,13.681 3.318,5.746 4.998,12.125 4.996,18.961 -0.001,6.868 -1.684,13.271 -5.004,19.032 -3.318,5.756 -7.894,10.381 -13.6,13.749" />
        </g>
        <g
           transform="translate(667.48,412.6128)"
           id="g68">
          <path
             inkscape:connector-curvature="0"
             id="path70"
             style="fill:#656263;fill-opacity:1;fill-rule:nonzero;stroke:none"
             d="m 0,0 v -1.101 c 3.369,0 6.497,-0.829 9.298,-2.463 2.801,-1.635 5.035,-3.893 6.641,-6.71 1.608,-2.818 2.423,-5.96 2.423,-9.338 0.001,-3.343 -0.811,-6.45 -2.416,-9.234 -1.604,-2.785 -3.838,-5.019 -6.637,-6.639 -2.8,-1.621 -5.931,-2.444 -9.306,-2.445 l -24.853,-0.005 -0.008,36.829 24.852,0.005 z m 10.62,-40.418 c 3.662,1.882 6.681,4.596 8.984,8.077 2.506,3.79 3.777,8.072 3.776,12.73 -10e-4,4.201 -1.059,8.153 -3.143,11.743 C 18.154,-4.282 15.288,-1.399 11.718,0.7 8.144,2.801 4.201,3.867 -0.007,3.867 L -27.318,3.861 c -0.753,0 -1.358,-0.223 -1.797,-0.662 -0.439,-0.44 -0.661,-1.045 -0.66,-1.797 l 0.014,-69.008 c 0,-1.547 0.942,-2.508 2.458,-2.508 h 0.052 c 1.484,0 2.407,0.962 2.407,2.51 l -0.006,24.651 24.853,0.005 c 1.991,10e-4 3.919,0.232 5.744,0.689 L 16.66,-68.452 c 0.265,-0.585 0.642,-1.018 1.116,-1.284 0.434,-0.244 0.87,-0.368 1.295,-0.368 h 0.152 c 0.436,0 1.088,0.13 1.71,0.75 0.489,0.491 0.748,1.099 0.748,1.759 0,0.151 -0.022,0.325 -0.134,0.771 z" />
        </g>
        <g
           transform="translate(327.625,246.9941)"
           id="g72">
          <path
             inkscape:connector-curvature="0"
             id="path74"
             style="fill:#656263;fill-opacity:1;fill-rule:nonzero;stroke:none"
             d="m 0,0 h -47.722 v 78.332 c 0,1.878 -0.988,2.999 -2.702,2.999 -1.693,0 -2.703,-1.121 -2.703,-2.999 V -2.762 c 0,-1.703 1.036,-2.761 2.703,-2.761 H 0 c 0.843,0 1.561,0.229 2.134,0.681 0.449,0.354 0.983,1.011 0.983,2.198 C 3.117,-2.023 2.893,0 0,0" />
        </g>
        <g
           transform="translate(396.21,271.0195)"
           id="g76">
          <path
             inkscape:connector-curvature="0"
             id="path78"
             style="fill:#656263;fill-opacity:1;fill-rule:nonzero;stroke:none"
             d="m 0,0 h -40.115 l 20.112,47.898 z m -17.383,55.324 c -0.289,0.693 -0.659,1.176 -1.134,1.482 -0.456,0.292 -0.915,0.441 -1.364,0.441 l -0.435,-0.009 c -0.721,-0.091 -1.705,-0.497 -2.301,-1.911 l -34.049,-80.97 c -0.176,-0.413 -0.266,-0.858 -0.266,-1.322 0,-1.023 0.48,-1.627 0.88,-1.95 0.515,-0.421 1.148,-0.634 1.882,-0.634 h 0.178 c 0.691,0 1.646,0.325 2.261,1.861 l 9.327,22.224 H 2.285 l 9.328,-22.284 c 0.658,-1.567 1.736,-1.801 2.32,-1.801 h 0.177 c 0.673,0 1.299,0.254 1.859,0.753 0.591,0.525 0.903,1.199 0.903,1.949 0,0.385 -0.09,0.79 -0.264,1.198 z" />
        </g>
        <g
           transform="translate(471.8774,284.8779)"
           id="g80">
          <path
             inkscape:connector-curvature="0"
             id="path82"
             style="fill:#656263;fill-opacity:1;fill-rule:nonzero;stroke:none"
             d="m 0,0 c -4.016,1.292 -9.266,2.59 -15.616,3.86 -7.787,1.472 -14.065,3.593 -18.657,6.303 -4.407,2.599 -6.548,6.199 -6.548,11.006 0,4.203 1.199,7.634 3.564,10.199 2.425,2.629 5.584,4.551 9.39,5.714 3.891,1.189 8.144,1.791 12.64,1.791 3.624,0 6.691,-0.261 9.115,-0.777 2.386,-0.507 4.525,-1.295 6.356,-2.341 1.872,-1.07 3.991,-2.607 6.272,-4.545 0.491,-0.447 0.912,-0.777 1.282,-1.007 1.017,-0.64 2.178,-0.597 3.127,-10e-4 l 0.415,0.39 c 0.383,0.509 0.576,1.091 0.576,1.729 0,0.803 -0.296,1.523 -0.868,2.097 -3.735,3.61 -7.705,6.206 -11.806,7.716 -4.08,1.501 -8.948,2.262 -14.469,2.262 -6.237,0 -11.728,-0.892 -16.322,-2.653 -4.668,-1.789 -8.327,-4.461 -10.876,-7.941 -2.561,-3.499 -3.86,-7.75 -3.86,-12.633 0,-4.185 1.134,-7.793 3.369,-10.723 2.202,-2.888 5.512,-5.308 9.838,-7.193 4.23,-1.845 9.712,-3.387 16.274,-4.58 5.553,-1.095 10.187,-2.204 13.774,-3.295 3.472,-1.058 6.641,-2.81 9.419,-5.208 2.677,-2.315 3.979,-5.35 3.979,-9.281 0,-4.624 -1.186,-8.454 -3.527,-11.386 -2.365,-2.961 -5.588,-5.147 -9.577,-6.495 -4.078,-1.379 -8.781,-2.078 -13.974,-2.078 -6.103,0 -11.309,0.955 -15.475,2.839 -4.15,1.876 -7.756,4.694 -10.734,8.396 -0.861,1.022 -1.719,1.519 -2.622,1.519 -0.509,0 -0.993,-0.129 -1.437,-0.383 l -0.35,-0.296 c -0.521,-0.522 -0.797,-1.18 -0.797,-1.904 0,-0.757 0.341,-1.517 1.025,-2.304 3.933,-4.745 8.416,-8.193 13.325,-10.25 4.879,-2.044 10.62,-3.081 17.065,-3.081 6.115,0 11.674,0.922 16.522,2.739 4.925,1.847 8.864,4.706 11.707,8.498 2.862,3.817 4.313,8.589 4.313,14.186 0,5.231 -1.641,9.46 -4.876,12.569 C 7.822,-3.532 4.137,-1.331 0,0" />
        </g>
        <g
           transform="translate(552.0806,284.8779)"
           id="g84">
          <path
             inkscape:connector-curvature="0"
             id="path86"
             style="fill:#656263;fill-opacity:1;fill-rule:nonzero;stroke:none"
             d="m 0,0 c -4.016,1.292 -9.266,2.59 -15.616,3.86 -7.787,1.472 -14.065,3.593 -18.657,6.303 -4.407,2.599 -6.548,6.199 -6.548,11.006 0,4.203 1.199,7.634 3.564,10.199 2.424,2.629 5.583,4.551 9.39,5.714 3.891,1.189 8.144,1.791 12.64,1.791 3.624,0 6.691,-0.261 9.115,-0.777 2.386,-0.507 4.525,-1.295 6.356,-2.341 1.872,-1.07 3.991,-2.607 6.272,-4.545 0.491,-0.447 0.912,-0.777 1.282,-1.007 1.016,-0.64 2.178,-0.597 3.127,-10e-4 l 0.415,0.39 c 0.383,0.509 0.576,1.091 0.576,1.729 0,0.803 -0.296,1.523 -0.868,2.097 -3.735,3.61 -7.706,6.206 -11.806,7.716 -4.08,1.501 -8.948,2.262 -14.469,2.262 -6.237,0 -11.728,-0.892 -16.322,-2.653 -4.669,-1.789 -8.328,-4.461 -10.875,-7.941 -2.562,-3.499 -3.861,-7.749 -3.861,-12.633 0,-4.186 1.134,-7.793 3.369,-10.723 2.201,-2.887 5.511,-5.307 9.838,-7.193 4.23,-1.845 9.712,-3.387 16.274,-4.58 5.553,-1.095 10.187,-2.204 13.774,-3.295 3.472,-1.058 6.641,-2.81 9.419,-5.208 2.677,-2.315 3.979,-5.35 3.979,-9.281 0,-4.624 -1.186,-8.454 -3.527,-11.386 -2.365,-2.961 -5.588,-5.147 -9.577,-6.495 -4.078,-1.379 -8.781,-2.078 -13.974,-2.078 -6.103,0 -11.309,0.955 -15.475,2.839 -4.149,1.875 -7.755,4.693 -10.735,8.397 -0.861,1.021 -1.719,1.518 -2.621,1.518 -0.51,0 -0.993,-0.129 -1.437,-0.383 l -0.349,-0.295 c -0.522,-0.522 -0.797,-1.181 -0.797,-1.905 0,-0.756 0.34,-1.516 1.023,-2.304 3.934,-4.745 8.417,-8.194 13.326,-10.25 4.879,-2.044 10.62,-3.081 17.065,-3.081 6.115,0 11.674,0.922 16.522,2.739 4.925,1.847 8.864,4.706 11.707,8.498 2.862,3.817 4.313,8.589 4.313,14.186 0,5.231 -1.641,9.46 -4.876,12.569 C 7.822,-3.532 4.137,-1.331 0,0" />
        </g>
        <g
           transform="translate(590.5405,328.3252)"
           id="g88">
          <path
             inkscape:connector-curvature="0"
             id="path90"
             style="fill:#656263;fill-opacity:1;fill-rule:nonzero;stroke:none"
             d="m 0,0 c -1.084,0 -1.716,-0.521 -2.055,-0.958 -0.429,-0.551 -0.647,-1.238 -0.647,-2.041 v -80.797 c 0,-0.829 0.2,-1.525 0.594,-2.067 0.325,-0.452 0.956,-0.991 2.108,-0.991 h 0.06 c 0.62,0 2.642,0.22 2.642,3.058 V -2.999 C 2.702,-1.121 1.715,0 0,0" />
        </g>
        <g
           transform="translate(687.6987,319.0566)"
           id="g92">
          <path
             inkscape:connector-curvature="0"
             id="path94"
             style="fill:#656263;fill-opacity:1;fill-rule:nonzero;stroke:none"
             d="m 0,0 c -3.911,3.226 -8.236,5.751 -12.856,7.506 -4.633,1.761 -9.605,2.653 -14.777,2.653 -8.067,0 -15.627,-1.995 -22.469,-5.931 -6.838,-3.934 -12.331,-9.345 -16.326,-16.083 -3.999,-6.749 -6.026,-14.262 -6.026,-22.333 0,-8.037 2.038,-15.541 6.057,-22.304 4.015,-6.759 9.507,-12.18 16.325,-16.112 6.82,-3.936 14.37,-5.931 22.439,-5.931 5.172,0 10.156,0.913 14.814,2.714 4.639,1.796 8.937,4.364 12.73,7.598 0.786,0.604 1.201,1.44 1.201,2.415 0,0.687 -0.234,1.285 -0.677,1.728 l -0.121,0.12 c -0.973,0.972 -2.546,0.972 -3.77,-0.033 -7.517,-5.905 -15.651,-8.901 -24.177,-8.901 -7.089,0 -13.71,1.738 -19.68,5.165 -5.974,3.426 -10.781,8.144 -14.286,14.024 -3.498,5.868 -5.272,12.434 -5.272,19.517 0,7.083 1.765,13.661 5.245,19.55 3.482,5.894 8.286,10.61 14.278,14.018 5.994,3.409 12.626,5.137 19.715,5.137 8.529,0 16.685,-2.957 24.268,-8.806 1.369,-0.999 2.953,-0.912 4.098,0.233 l 0.124,0.124 0.315,0.627 v 0.063 C 1.29,-2.988 1.35,-2.722 1.35,-2.451 1.35,-1.652 0.926,-0.866 0,0" />
        </g>
        <g
           transform="translate(220.8203,309.0508)"
           id="g96">
          <path
             inkscape:connector-curvature="0"
             id="path98"
             style="fill:#f9a72b;fill-opacity:1;fill-rule:nonzero;stroke:none"
             d="M 0,0 -2.192,0.195 3.703,66.15 5.896,65.954 Z" />
        </g>
        <g
           transform="translate(215.3623,308.4951)"
           id="g100">
          <path
             inkscape:connector-curvature="0"
             id="path102"
             style="fill:#f9a72b;fill-opacity:1;fill-rule:nonzero;stroke:none"
             d="M 0,0 -2.192,0.195 3.703,66.154 5.896,65.958 Z" />
        </g>
        <g
           transform="translate(210.0044,309.8965)"
           id="g104">
          <path
             inkscape:connector-curvature="0"
             id="path106"
             style="fill:#f9a72b;fill-opacity:1;fill-rule:nonzero;stroke:none"
             d="M 0,0 -2.192,0.195 3.697,66.151 5.889,65.956 Z" />
        </g>
        <g
           transform="translate(175.894,262.3506)"
           id="g108">
          <path
             inkscape:connector-curvature="0"
             id="path110"
             style="fill:#f9a72b;fill-opacity:1;fill-rule:nonzero;stroke:none"
             d="m 0,0 -1.458,1.369 45.265,48.215 1.458,-1.369 z" />
        </g>
        <g
           transform="translate(171.8999,266.165)"
           id="g112">
          <path
             inkscape:connector-curvature="0"
             id="path114"
             style="fill:#f9a72b;fill-opacity:1;fill-rule:nonzero;stroke:none"
             d="m 0,0 -1.458,1.369 45.267,48.218 1.458,-1.369 z" />
        </g>
        <g
           transform="translate(166.5488,269.0117)"
           id="g116">
          <path
             inkscape:connector-curvature="0"
             id="path118"
             style="fill:#f9a72b;fill-opacity:1;fill-rule:nonzero;stroke:none"
             d="m 0,0 -1.458,1.369 45.26,48.216 1.458,-1.368 z" />
        </g>
        <g
           transform="translate(241.2383,255.1836)"
           id="g120">
          <path
             inkscape:connector-curvature="0"
             id="path122"
             style="fill:#f9a72b;fill-opacity:1;fill-rule:nonzero;stroke:none"
             d="m 0,0 -33.995,56.829 1.716,1.026 L 1.716,1.027 Z" />
        </g>
        <g
           transform="translate(245.5029,258.2715)"
           id="g124">
          <path
             inkscape:connector-curvature="0"
             id="path126"
             style="fill:#f9a72b;fill-opacity:1;fill-rule:nonzero;stroke:none"
             d="m 0,0 -33.993,56.83 1.716,1.026 L 1.716,1.027 Z" />
        </g>
        <g
           transform="translate(250.7344,260.2559)"
           id="g128">
          <path
             inkscape:connector-curvature="0"
             id="path130"
             style="fill:#f9a72b;fill-opacity:1;fill-rule:nonzero;stroke:none"
             d="m 0,0 -33.998,56.825 1.716,1.027 L 1.716,1.027 Z" />
        </g>
        <g
           transform="translate(219.2324,313.9077)"
           id="g132">
          <path
             inkscape:connector-curvature="0"
             id="path134"
             style="fill:#f9a72b;fill-opacity:1;fill-rule:nonzero;stroke:none"
             d="M 0,0 -58.542,31.279 -57.6,33.042 0.942,1.764 Z" />
        </g>
        <g
           transform="translate(216.5659,309.3447)"
           id="g136">
          <path
             inkscape:connector-curvature="0"
             id="path138"
             style="fill:#f9a72b;fill-opacity:1;fill-rule:nonzero;stroke:none"
             d="m 0,0 -58.544,31.277 0.942,1.764 L 0.942,1.764 Z" />
        </g>
        <g
           transform="translate(214.1655,304.6475)"
           id="g140">
          <path
             inkscape:connector-curvature="0"
             id="path142"
             style="fill:#f9a72b;fill-opacity:1;fill-rule:nonzero;stroke:none"
             d="m 0,0 -58.547,31.277 0.943,1.764 L 0.942,1.764 Z" />
        </g>
        <g
           transform="translate(219.6069,313.3169)"
           id="g144">
          <path
             inkscape:connector-curvature="0"
             id="path146"
             style="fill:#ffffff;fill-opacity:1;fill-rule:nonzero;stroke:none"
             d="m 0,0 c -0.888,2.924 -3.979,4.573 -6.9,3.685 -2.924,-0.889 -4.575,-3.979 -3.685,-6.903 0.891,-2.924 3.984,-4.576 6.903,-3.685 C -0.758,-6.014 0.893,-2.924 0,0" />
        </g>
        <g
           transform="translate(219.6069,313.3169)"
           id="g148">
          <path
             inkscape:connector-curvature="0"
             id="path150"
             style="fill:none;stroke:#656263;stroke-width:4.127;stroke-linecap:butt;stroke-linejoin:miter;stroke-miterlimit:10;stroke-dasharray:none;stroke-opacity:1"
             d="m 0,0 c -0.888,2.924 -3.979,4.573 -6.9,3.685 -2.924,-0.889 -4.575,-3.979 -3.685,-6.903 0.891,-2.924 3.984,-4.576 6.903,-3.685 C -0.758,-6.014 0.893,-2.924 0,0 Z" />
        </g>
        <g
           transform="translate(184.2173,365.5103)"
           id="g152">
          <path
             inkscape:connector-curvature="0"
             id="path154"
             style="fill:#656263;fill-opacity:1;fill-rule:nonzero;stroke:none"
             d="m 0,0 c 9.507,5.408 20.036,8.15 31.293,8.15 13.531,0 26.478,-4.692 38.511,-13.971 2.139,-1.569 4.703,-1.334 6.278,0.258 l 0.091,0.09 c 0.128,0.127 0.234,0.274 0.314,0.435 l 0.185,0.373 c 0.057,0.114 0.1,0.235 0.13,0.358 0.217,0.414 0.326,0.859 0.326,1.324 0,1.244 -0.662,2.469 -2.025,3.744 C 75.078,0.785 75.052,0.807 75.025,0.829 68.842,5.927 61.996,9.924 54.676,12.708 47.347,15.493 39.48,16.904 31.293,16.904 18.518,16.904 6.551,13.746 -4.274,7.517 -15.097,1.294 -23.792,-7.271 -30.118,-17.94 c -6.329,-10.68 -9.537,-22.572 -9.537,-35.347 0,-12.713 3.224,-24.591 9.585,-35.302 6.358,-10.7 15.053,-19.279 25.843,-25.499 10.795,-6.231 22.747,-9.39 35.52,-9.39 8.193,0 16.079,1.444 23.44,4.293 7.337,2.841 14.139,6.904 20.152,12.027 1.223,0.94 1.869,2.24 1.869,3.758 0,1.346 -0.569,2.196 -1.046,2.672 l -0.184,0.184 c -0.747,0.749 -1.705,1.144 -2.772,1.144 -1.078,0 -2.125,-0.41 -3.085,-1.198 -11.93,-9.373 -24.84,-14.125 -38.374,-14.125 -11.254,0 -21.765,2.757 -31.241,8.196 -9.482,5.438 -17.11,12.928 -22.671,22.262 -5.556,9.312 -8.373,19.734 -8.373,30.978 0,11.241 2.801,21.682 8.325,31.033 C -17.14,-12.9 -9.513,-5.413 0,0" />
        </g>
        <g
           transform="translate(210.6597,172.79)"
           id="g156">
          <path
             inkscape:connector-curvature="0"
             id="path158"
             style="fill:#656263;fill-opacity:1;fill-rule:nonzero;stroke:none"
             d="M 0,0 V 52.755 H -46.762 V 32.763 h 21.883 V 0.775 c 0,-6.515 -3.072,-9.772 -9.218,-9.772 -2.816,0 -5.129,0.849 -6.941,2.555 -1.817,1.701 -3.093,4.22 -3.833,7.55 l -20.104,-7.217 c 0.808,-3.058 1.888,-5.811 3.228,-8.284 H -2.616 C -0.892,-10.358 0,-5.581 0,0" />
        </g>
        <g
           transform="translate(206.6924,155.6846)"
           id="g160">
          <path
             inkscape:connector-curvature="0"
             id="path162"
             style="fill:#656263;fill-opacity:1;fill-rule:nonzero;stroke:none"
             d="m 0,0 h -56.107 c 0.834,-1.21 1.727,-2.355 2.716,-3.396 H -2.365 C -1.476,-2.354 -0.701,-1.208 0,0" />
        </g>
        <g
           transform="translate(230.6396,155.6846)"
           id="g164">
          <path
             inkscape:connector-curvature="0"
             id="path166"
             style="fill:#656263;fill-opacity:1;fill-rule:nonzero;stroke:none"
             d="m 0,0 c 0.82,-1.228 1.736,-2.359 2.741,-3.396 h 57.344 c 1,1.037 1.911,2.168 2.729,3.396 z" />
        </g>
        <g
           transform="translate(298.958,178.0098)"
           id="g168">
          <path
             inkscape:connector-curvature="0"
             id="path170"
             style="fill:#656263;fill-opacity:1;fill-rule:nonzero;stroke:none"
             d="M 0,0 V 47.535 H -24.656 V -0.778 c 0,-4.592 -0.999,-7.982 -2.999,-10.163 -1.997,-2.184 -5.073,-3.276 -9.22,-3.276 -4.146,0 -7.202,1.092 -9.16,3.276 -1.964,2.181 -2.945,5.571 -2.945,10.163 V 47.535 H -73.86 V 0 c 0,-7.931 1.341,-14.45 3.964,-19.612 H -3.937 C -1.331,-14.45 0,-7.931 0,0" />
        </g>
        <g
           transform="translate(360.7695,155.6846)"
           id="g172">
          <path
             inkscape:connector-curvature="0"
             id="path174"
             style="fill:#656263;fill-opacity:1;fill-rule:nonzero;stroke:none"
             d="m 0,0 2.557,-3.396 h 29.04 V 0 Z" />
        </g>
        <g
           transform="translate(339.3901,184.1182)"
           id="g176">
          <path
             inkscape:connector-curvature="0"
             id="path178"
             style="fill:#656263;fill-opacity:1;fill-rule:nonzero;stroke:none"
             d="M 0,0 19.344,-25.721 H 52.977 V 41.427 H 28.21 V 1.109 L -1.891,41.427 H -24.77 V -25.721 H 0 Z" />
        </g>
        <path
           inkscape:connector-curvature="0"
           id="path180"
           style="fill:#656263;fill-opacity:1;fill-rule:nonzero;stroke:none"
           d="m 314.62,152.288 h 24.77 v 3.396 h -24.77 z" />
        <path
           inkscape:connector-curvature="0"
           id="path182"
           style="fill:#656263;fill-opacity:1;fill-rule:nonzero;stroke:none"
           d="M 432.908,225.545 H 408.14 v -67.147 h 24.768 z" />
        <path
           inkscape:connector-curvature="0"
           id="path184"
           style="fill:#656263;fill-opacity:1;fill-rule:nonzero;stroke:none"
           d="m 408.141,152.288 h 24.768 v 3.396 h -24.768 z" />
        <g
           transform="translate(522.5806,155.6846)"
           id="g186">
          <path
             inkscape:connector-curvature="0"
             id="path188"
             style="fill:#656263;fill-opacity:1;fill-rule:nonzero;stroke:none"
             d="m 0,0 h -68.786 c 0.623,-0.724 1.249,-1.448 1.938,-2.111 0.475,-0.456 1.003,-0.858 1.506,-1.285 h 61.915 c 0.501,0.427 1.027,0.829 1.497,1.285 C -1.241,-1.448 -0.622,-0.724 0,0" />
        </g>
        <g
           transform="translate(502.0503,169.124)"
           id="g190">
          <path
             inkscape:connector-curvature="0"
             id="path192"
             style="fill:#656263;fill-opacity:1;fill-rule:nonzero;stroke:none"
             d="m 0,0 c -3.151,-3.555 -7.76,-5.331 -13.828,-5.331 -6.148,0 -10.794,1.776 -13.941,5.331 -3.149,3.553 -4.718,8.811 -4.718,15.771 0,6.959 1.569,12.235 4.718,15.828 3.147,3.59 7.793,5.386 13.941,5.386 6.143,0 10.77,-1.796 13.882,-5.386 C 3.165,28.006 4.717,22.73 4.717,15.771 4.717,8.811 3.146,3.553 0,0 m 29.6,15.771 c 0,13.774 -3.666,24.212 -10.999,31.321 -7.327,7.107 -18.14,10.662 -32.429,10.662 -14.293,0 -25.12,-3.555 -32.489,-10.662 -7.37,-7.109 -11.05,-17.547 -11.05,-31.321 0,-10.952 2.366,-19.761 7.027,-26.498 H 22.605 C 27.24,-3.99 29.6,4.819 29.6,15.771" />
        </g>
        <g
           transform="translate(581.1851,155.6846)"
           id="g194">
          <path
             inkscape:connector-curvature="0"
             id="path196"
             style="fill:#656263;fill-opacity:1;fill-rule:nonzero;stroke:none"
             d="M 0,0 1.814,-3.396 H 28.353 L 26.393,0 Z" />
        </g>
        <g
           transform="translate(566.6343,205.665)"
           id="g198">
          <path
             inkscape:connector-curvature="0"
             id="path200"
             style="fill:#656263;fill-opacity:1;fill-rule:nonzero;stroke:none"
             d="m 0,0 h 10.666 c 6.219,0 9.326,-3.072 9.326,-9.22 0,-2.74 -0.796,-4.812 -2.386,-6.218 -1.592,-1.409 -3.907,-2.111 -6.94,-2.111 H 0 Z m 0,-36.874 h 7.555 l 5.548,-10.394 H 39.38 L 31.21,-33.1 c 8.886,2.815 13.331,10.626 13.331,23.437 0,9.699 -2.593,17.05 -7.774,22.046 -5.188,5 -12.811,7.497 -22.882,7.497 H -24.767 V -47.268 H 0 Z" />
        </g>
        <path
           inkscape:connector-curvature="0"
           id="path202"
           style="fill:#656263;fill-opacity:1;fill-rule:nonzero;stroke:none"
           d="m 541.868,152.288 h 24.767 v 3.396 h -24.767 z" />
        <g
           transform="translate(690.2534,170.9023)"
           id="g204">
          <path
             inkscape:connector-curvature="0"
             id="path206"
             style="fill:#656263;fill-opacity:1;fill-rule:nonzero;stroke:none"
             d="m 0,0 c 0,4.885 -1.166,8.938 -3.499,12.16 -2.333,3.22 -5.997,5.85 -10.996,7.886 -4.998,2.036 -11.681,3.681 -20.048,4.942 -3.038,0.517 -5.147,0.924 -6.331,1.222 -1.186,0.297 -2.11,0.778 -2.776,1.444 -0.667,0.667 -1,1.627 -1,2.889 0,1.627 0.612,2.774 1.834,3.441 1.219,0.666 3.237,1 6.053,1 3.996,0 8.312,-0.555 12.939,-1.667 4.627,-1.109 8.568,-2.554 11.828,-4.329 l 9.774,17.437 c -4.517,2.812 -9.701,5.07 -15.549,6.776 -5.852,1.703 -11.996,2.553 -18.439,2.553 -11.773,0 -20.269,-2.201 -25.49,-6.608 -5.22,-4.406 -7.829,-11.348 -7.829,-20.825 0,-4.594 1.111,-8.497 3.332,-11.717 2.22,-3.221 5.7,-5.906 10.439,-8.053 4.738,-2.15 10.995,-3.964 18.77,-5.444 L -33.1,2.441 c 3.184,-0.517 5.348,-1.054 6.498,-1.611 1.147,-0.555 1.721,-1.648 1.721,-3.275 0,-2 -0.646,-3.315 -1.943,-3.943 -1.297,-0.63 -3.573,-0.945 -6.831,-0.945 -4.666,0 -9.626,0.685 -14.882,2.054 -5.258,1.369 -9.627,3.091 -13.106,5.167 l -6.275,-12.393 H -1.917 C -0.641,-8.979 0,-4.813 0,0" />
        </g>
        <g
           transform="translate(620.9624,155.6846)"
           id="g208">
          <path
             inkscape:connector-curvature="0"
             id="path210"
             style="fill:#656263;fill-opacity:1;fill-rule:nonzero;stroke:none"
             d="m 0,0 -1.238,-2.444 c 0.463,-0.339 0.975,-0.633 1.458,-0.952 h 63.777 c 0.822,1.042 1.576,2.157 2.205,3.396 z" />
        </g>
        <g
           transform="translate(204.3276,152.2881)"
           id="g212">
          <path
             inkscape:connector-curvature="0"
             id="path214"
             style="fill:#f9a72b;fill-opacity:1;fill-rule:nonzero;stroke:none"
             d="m 0,0 h -51.026 c 0.934,-0.987 1.96,-1.879 3.033,-2.711 h 45.202 c 0.356,0.295 0.734,0.573 1.07,0.887 C -1.109,-1.252 -0.544,-0.636 0,0" />
        </g>
        <g
           transform="translate(290.7246,152.2881)"
           id="g216">
          <path
             inkscape:connector-curvature="0"
             id="path218"
             style="fill:#f9a72b;fill-opacity:1;fill-rule:nonzero;stroke:none"
             d="m 0,0 h -57.344 c 0.242,-0.252 0.462,-0.529 0.714,-0.769 0.732,-0.691 1.515,-1.336 2.346,-1.942 h 51.243 c 0.825,0.606 1.607,1.251 2.333,1.942 C -0.456,-0.529 -0.242,-0.252 0,0" />
        </g>
        <g
           transform="translate(363.3267,152.2881)"
           id="g220">
          <path
             inkscape:connector-curvature="0"
             id="path222"
             style="fill:#f9a72b;fill-opacity:1;fill-rule:nonzero;stroke:none"
             d="M 0,0 2.039,-2.711 H 29.04 V 0 Z" />
        </g>
        <path
           inkscape:connector-curvature="0"
           id="path224"
           style="fill:#f9a72b;fill-opacity:1;fill-rule:nonzero;stroke:none"
           d="m 314.62,149.577 h 24.77 v 2.711 h -24.77 z" />
        <path
           inkscape:connector-curvature="0"
           id="path226"
           style="fill:#f9a72b;fill-opacity:1;fill-rule:nonzero;stroke:none"
           d="m 408.141,149.577 h 24.768 v 2.711 h -24.768 z" />
        <g
           transform="translate(457.2388,152.2881)"
           id="g228">
          <path
             inkscape:connector-curvature="0"
             id="path230"
             style="fill:#f9a72b;fill-opacity:1;fill-rule:nonzero;stroke:none"
             d="M 0,0 C 1.149,-0.98 2.369,-1.889 3.668,-2.711 H 58.262 C 59.556,-1.889 60.771,-0.98 61.915,0 Z" />
        </g>
        <path
           inkscape:connector-curvature="0"
           id="path232"
           style="fill:#f9a72b;fill-opacity:1;fill-rule:nonzero;stroke:none"
           d="m 541.868,149.577 h 24.767 v 2.711 h -24.767 z" />
        <g
           transform="translate(582.9995,152.2881)"
           id="g234">
          <path
             inkscape:connector-curvature="0"
             id="path236"
             style="fill:#f9a72b;fill-opacity:1;fill-rule:nonzero;stroke:none"
             d="M 0,0 1.448,-2.711 H 28.1 L 26.538,0 Z" />
        </g>
        <g
           transform="translate(625.8325,149.5771)"
           id="g238">
          <path
             inkscape:connector-curvature="0"
             id="path240"
             style="fill:#f9a72b;fill-opacity:1;fill-rule:nonzero;stroke:none"
             d="m 0,0 h 56.572 c 0.025,0.02 0.049,0.036 0.074,0.054 0.919,0.795 1.726,1.701 2.481,2.657 H -4.65 C -3.186,1.73 -1.632,0.827 0,0" />
        </g>
        <g
           transform="translate(208.0435,158.3975)"
           id="g242">
          <path
             inkscape:connector-curvature="0"
             id="path244"
             style="fill:#0a92db;fill-opacity:1;fill-rule:nonzero;stroke:none"
             d="m 0,0 h -59.13 c 0.515,-0.952 1.078,-1.848 1.672,-2.713 H -1.351 C -0.854,-1.851 -0.404,-0.947 0,0" />
        </g>
        <g
           transform="translate(293.4536,155.6846)"
           id="g246">
          <path
             inkscape:connector-curvature="0"
             id="path248"
             style="fill:#0a92db;fill-opacity:1;fill-rule:nonzero;stroke:none"
             d="M 0,0 C 0.567,0.857 1.088,1.761 1.567,2.713 H -64.392 C -63.911,1.761 -63.387,0.857 -62.814,0 Z" />
        </g>
        <path
           inkscape:connector-curvature="0"
           id="path250"
           style="fill:#0a92db;fill-opacity:1;fill-rule:nonzero;stroke:none"
           d="m 339.39,158.397 h -24.77 v -2.713 h 24.77 z" />
        <g
           transform="translate(360.7695,155.6846)"
           id="g252">
          <path
             inkscape:connector-curvature="0"
             id="path254"
             style="fill:#0a92db;fill-opacity:1;fill-rule:nonzero;stroke:none"
             d="M 0,0 H 31.597 V 2.713 H -2.036 Z" />
        </g>
        <path
           inkscape:connector-curvature="0"
           id="path256"
           style="fill:#0a92db;fill-opacity:1;fill-rule:nonzero;stroke:none"
           d="M 432.908,158.397 H 408.14 v -2.713 h 24.768 z" />
        <g
           transform="translate(522.5806,155.6846)"
           id="g258">
          <path
             inkscape:connector-curvature="0"
             id="path260"
             style="fill:#0a92db;fill-opacity:1;fill-rule:nonzero;stroke:none"
             d="M 0,0 C 0.74,0.862 1.427,1.771 2.075,2.713 H -70.87 C -70.218,1.771 -69.528,0.862 -68.786,0 Z" />
        </g>
        <path
           inkscape:connector-curvature="0"
           id="path262"
           style="fill:#0a92db;fill-opacity:1;fill-rule:nonzero;stroke:none"
           d="m 566.634,158.397 h -24.767 v -2.713 h 24.767 z" />
        <g
           transform="translate(581.1851,155.6846)"
           id="g264">
          <path
             inkscape:connector-curvature="0"
             id="path266"
             style="fill:#0a92db;fill-opacity:1;fill-rule:nonzero;stroke:none"
             d="M 0,0 H 26.393 L 24.829,2.713 H -1.448 Z" />
        </g>
        <g
           transform="translate(687.1646,155.6846)"
           id="g268">
          <path
             inkscape:connector-curvature="0"
             id="path270"
             style="fill:#0a92db;fill-opacity:1;fill-rule:nonzero;stroke:none"
             d="M 0,0 C 0.438,0.859 0.829,1.761 1.172,2.713 H -64.829 L -66.202,0 Z" />
        </g>
        <g
           transform="translate(221.5234,411.9487)"
           id="g272">
          <path
             inkscape:connector-curvature="0"
             id="path274"
             style="fill:#ffffff;fill-opacity:1;fill-rule:nonzero;stroke:none"
             d="m 0,0 c -0.497,3.013 -3.351,5.049 -6.361,4.555 -3.016,-0.5 -5.056,-3.348 -4.554,-6.361 0.497,-3.018 3.349,-5.061 6.36,-4.56 C -1.539,-5.865 0.502,-3.018 0,0" />
        </g>
        <g
           transform="translate(216.0649,414.5137)"
           id="g276">
          <path
             inkscape:connector-curvature="0"
             id="path278"
             style="fill:#656263;fill-opacity:1;fill-rule:nonzero;stroke:none"
             d="m 0,0 c -0.188,0 -0.38,-0.016 -0.568,-0.046 -0.913,-0.152 -1.715,-0.651 -2.255,-1.406 -0.537,-0.752 -0.75,-1.668 -0.598,-2.58 0.309,-1.877 2.099,-3.181 3.986,-2.863 0.916,0.152 1.718,0.651 2.258,1.404 0.539,0.754 0.752,1.673 0.6,2.587 C 3.145,-1.22 1.706,0 0,0 m -0.007,-11.07 h -0.001 c -3.729,0 -6.877,2.676 -7.485,6.363 -0.332,1.996 0.134,4.006 1.313,5.656 1.181,1.652 2.936,2.744 4.94,3.076 0.412,0.068 0.828,0.102 1.24,0.102 3.735,0 6.887,-2.673 7.495,-6.356 0.333,-2 -0.135,-4.013 -1.317,-5.664 C 4.997,-9.542 3.244,-10.634 1.242,-10.966 0.83,-11.035 0.409,-11.07 -0.007,-11.07" />
        </g>
        <g
           transform="translate(201.5366,149.5771)"
           id="g280">
          <path
             inkscape:connector-curvature="0"
             id="path282"
             style="fill:#656263;fill-opacity:1;fill-rule:nonzero;stroke:none"
             d="m 0,0 h -45.202 c 0.283,-0.221 0.552,-0.458 0.847,-0.667 0.922,-0.66 1.904,-1.245 2.914,-1.796 H -3.658 C -2.349,-1.729 -1.114,-0.924 0,0" />
        </g>
        <g
           transform="translate(178.7822,142.9111)"
           id="g284">
          <path
             inkscape:connector-curvature="0"
             id="path286"
             style="fill:#656263;fill-opacity:1;fill-rule:nonzero;stroke:none"
             d="M 0,0 C 1.181,0 2.325,0.036 3.44,0.101 H -3.304 C -2.229,0.035 -1.128,0 0,0" />
        </g>
        <g
           transform="translate(164.5845,145.1143)"
           id="g288">
          <path
             inkscape:connector-curvature="0"
             id="path290"
             style="fill:#656263;fill-opacity:1;fill-rule:nonzero;stroke:none"
             d="m 0,0 c 3.269,-1.15 6.894,-1.858 10.894,-2.103 h 6.744 C 21.832,-1.86 25.541,-1.144 28.813,0 Z" />
        </g>
        <g
           transform="translate(262.083,143.0225)"
           id="g292">
          <path
             inkscape:connector-curvature="0"
             id="path294"
             style="fill:#656263;fill-opacity:1;fill-rule:nonzero;stroke:none"
             d="M 0,0 C 6.28,0 11.732,0.698 16.362,2.092 H -16.373 C -11.733,0.698 -6.277,0 0,0" />
        </g>
        <g
           transform="translate(287.6841,149.5771)"
           id="g296">
          <path
             inkscape:connector-curvature="0"
             id="path298"
             style="fill:#656263;fill-opacity:1;fill-rule:nonzero;stroke:none"
             d="m 0,0 h -51.244 c 1.26,-0.92 2.64,-1.736 4.126,-2.463 h 43.01 C -2.627,-1.736 -1.253,-0.92 0,0" />
        </g>
        <g
           transform="translate(392.3667,149.5771)"
           id="g300">
          <path
             inkscape:connector-curvature="0"
             id="path302"
             style="fill:#656263;fill-opacity:1;fill-rule:nonzero;stroke:none"
             d="m 0,0 h -27.001 l 1.521,-2.463 h 25.374 z" />
        </g>
        <g
           transform="translate(369.1147,143.5068)"
           id="g304">
          <path
             inkscape:connector-curvature="0"
             id="path306"
             style="fill:#656263;fill-opacity:1;fill-rule:nonzero;stroke:none"
             d="M 0,0 H 22.991 L 23.06,1.607 H -0.993 Z" />
        </g>
        <path
           inkscape:connector-curvature="0"
           id="path308"
           style="fill:#656263;fill-opacity:1;fill-rule:nonzero;stroke:none"
           d="m 339.39,149.577 h -24.77 v -2.463 h 24.77 z" />
        <path
           inkscape:connector-curvature="0"
           id="path310"
           style="fill:#656263;fill-opacity:1;fill-rule:nonzero;stroke:none"
           d="m 314.62,143.139 h 24.77 v 1.976 h -24.77 z" />
        <path
           inkscape:connector-curvature="0"
           id="path312"
           style="fill:#656263;fill-opacity:1;fill-rule:nonzero;stroke:none"
           d="M 432.908,149.577 H 408.14 v -2.463 h 24.768 z" />
        <path
           inkscape:connector-curvature="0"
           id="path314"
           style="fill:#656263;fill-opacity:1;fill-rule:nonzero;stroke:none"
           d="m 408.141,143.139 h 24.768 v 1.976 h -24.768 z" />
        <g
           transform="translate(488.2222,142.9111)"
           id="g316">
          <path
             inkscape:connector-curvature="0"
             id="path318"
             style="fill:#656263;fill-opacity:1;fill-rule:nonzero;stroke:none"
             d="M 0,0 C 1.349,0 2.662,0.036 3.947,0.101 H -3.949 C -2.662,0.036 -1.349,0 0,0" />
        </g>
        <g
           transform="translate(515.5005,149.5771)"
           id="g320">
          <path
             inkscape:connector-curvature="0"
             id="path322"
             style="fill:#656263;fill-opacity:1;fill-rule:nonzero;stroke:none"
             d="m 0,0 h -54.594 c 1.454,-0.924 3.024,-1.729 4.663,-2.463 H -4.65 C -3.015,-1.729 -1.449,-0.924 0,0" />
        </g>
        <g
           transform="translate(471.0854,145.1143)"
           id="g324">
          <path
             inkscape:connector-curvature="0"
             id="path326"
             style="fill:#656263;fill-opacity:1;fill-rule:nonzero;stroke:none"
             d="m 0,0 c 3.964,-1.144 8.344,-1.861 13.188,-2.103 h 7.896 C 25.926,-1.861 30.302,-1.144 34.26,0 Z" />
        </g>
        <path
           inkscape:connector-curvature="0"
           id="path328"
           style="fill:#656263;fill-opacity:1;fill-rule:nonzero;stroke:none"
           d="m 566.634,149.577 h -24.767 v -2.463 h 24.767 z" />
        <path
           inkscape:connector-curvature="0"
           id="path330"
           style="fill:#656263;fill-opacity:1;fill-rule:nonzero;stroke:none"
           d="m 541.868,143.507 h 24.767 v 1.607 h -24.767 z" />
        <g
           transform="translate(587.4009,143.1387)"
           id="g332">
          <path
             inkscape:connector-curvature="0"
             id="path334"
             style="fill:#656263;fill-opacity:1;fill-rule:nonzero;stroke:none"
             d="M 0,0 H 26.881 L 25.904,1.976 H -0.906 Z" />
        </g>
        <g
           transform="translate(611.0991,149.5771)"
           id="g336">
          <path
             inkscape:connector-curvature="0"
             id="path338"
             style="fill:#656263;fill-opacity:1;fill-rule:nonzero;stroke:none"
             d="m 0,0 h -26.651 l 1.13,-2.463 H 1.218 Z" />
        </g>
        <g
           transform="translate(657.0435,142.9111)"
           id="g340">
          <path
             inkscape:connector-curvature="0"
             id="path342"
             style="fill:#656263;fill-opacity:1;fill-rule:nonzero;stroke:none"
             d="M 0,0 C 1.432,0 2.812,0.034 4.146,0.101 H -3.97 C -2.656,0.04 -1.336,0 0,0" />
        </g>
        <g
           transform="translate(653.0737,143.0117)"
           id="g344">
          <path
             inkscape:connector-curvature="0"
             id="path346"
             style="fill:#656263;fill-opacity:1;fill-rule:nonzero;stroke:none"
             d="m 0,0 h 8.115 c 4.94,0.245 9.206,0.948 12.81,2.103 H -14.936 C -10.135,0.937 -5.156,0.236 0,0" />
        </g>
        <g
           transform="translate(682.4048,149.5771)"
           id="g348">
          <path
             inkscape:connector-curvature="0"
             id="path350"
             style="fill:#656263;fill-opacity:1;fill-rule:nonzero;stroke:none"
             d="m 0,0 h -56.572 c 1.796,-0.909 3.69,-1.728 5.678,-2.463 H -3.64 C -2.29,-1.734 -1.071,-0.917 0,0" />
        </g>
      </g>
    </g>
  </g>
</svg>
